<svg xmlns="http://www.w3.org/2000/svg" xmlns:xlink="http://www.w3.org/1999/xlink" viewBox="0 0 166.55 108.21"><defs><style>.cls-1{fill:url(#linear-gradient);}.cls-2,.cls-4,.cls-7{fill-rule:evenodd;}.cls-2{fill:url(#linear-gradient-2);}.cls-3{fill:url(#linear-gradient-3);}.cls-4{fill:url(#linear-gradient-4);}.cls-5{fill:url(#linear-gradient-5);}.cls-6{fill:url(#linear-gradient-6);}.cls-7{opacity:0.07;}</style><linearGradient id="linear-gradient" x1="12.26" y1="109.71" x2="123.63" y2="-1.65" gradientUnits="userSpaceOnUse"><stop offset="0" stop-color="#65aae1"/><stop offset="1" stop-color="#8ceabf"/></linearGradient><linearGradient id="linear-gradient-2" x1="134.58" y1="101.2" x2="160.92" y2="74.86" xlink:href="#linear-gradient"/><linearGradient id="linear-gradient-3" x1="12.06" y1="109.71" x2="123.43" y2="-1.65" xlink:href="#linear-gradient"/><linearGradient id="linear-gradient-4" x1="134.38" y1="101.2" x2="160.71" y2="74.86" xlink:href="#linear-gradient"/><linearGradient id="linear-gradient-5" x1="67.95" y1="96.08" x2="144.78" y2="19.25" xlink:href="#linear-gradient"/><linearGradient id="linear-gradient-6" x1="-8.48" y1="88.97" x2="68.31" y2="12.18" xlink:href="#linear-gradient"/></defs><g id="Layer_2" data-name="Layer 2"><g id="OBJECTS"><path class="cls-1" d="M125.31,1.61a18.26,18.26,0,0,0-3.64-1.2l-.33-.06c-.48-.09-1-.17-1.43-.23l-.62,0L118.15,0h-.24c-.39,0-.78,0-1.16,0h0c-.55,0-1.09.11-1.63.19l-.18,0a15.2,15.2,0,0,0-1.52.33h-.06a17.69,17.69,0,0,0-11.58,9.77L84.59,47.76,67.42,10.38l-.09-.18c-.15-.31-.32-.62-.48-.92l-.35-.64c-.17-.28-.36-.55-.54-.83s-.28-.43-.43-.63-.39-.48-.59-.72-.33-.43-.51-.63S64,5.41,63.8,5.2s-.39-.4-.6-.59-.44-.37-.66-.55-.45-.38-.68-.55l-.67-.46-.79-.52-.67-.36c-.29-.16-.59-.32-.89-.46l-.19-.1-.47-.19c-.35-.14-.69-.28-1-.4L56.36.77c-.31-.1-.62-.18-.93-.26L54.58.33C54.27.27,54,.22,53.66.18s-.57-.08-.85-.1-.65,0-1,0l-.54,0H51l-.48,0c-.38,0-.75.05-1.12.09l-.48.05a14.71,14.71,0,0,0-1.45.26L47,.54c-.38.1-.74.2-1.11.32L45.4,1c-.49.17-1,.37-1.46.58l0,0-.15.08c-.43.2-.85.42-1.26.65l-.38.22a14.06,14.06,0,0,0-1.21.8l-.13.08c-.41.3-.81.63-1.2,1l-.34.32c-.29.26-.57.54-.84.82l-.29.31c-.34.38-.67.77-1,1.19a1.92,1.92,0,0,0-.13.17c-.26.36-.51.72-.74,1.1L36,8.75c-.18.31-.36.63-.52.95l-.23.46a1.51,1.51,0,0,0-.11.22L1.82,82.92A17.75,17.75,0,1,0,34.11,97.68L51.27,60.3,68.44,97.68l.09.18c.15.31.31.61.47.9s.23.45.36.66.35.54.53.81.29.44.44.65.38.47.57.7.35.44.54.65.4.41.6.61.41.42.62.61.43.36.65.54.45.38.69.56.44.3.66.45.53.36.8.52.44.24.66.36.6.33.9.47l.19.1c.18.08.36.14.54.21s.59.25.89.36l.83.26.81.23c.31.08.61.14.92.2l.78.14c.3.05.61.08.92.11s.54.05.81.06.26,0,.39,0h.5c.28,0,.57,0,.85,0s.61,0,.92-.07.51,0,.76-.09.69-.11,1-.18l.62-.14c.41-.1.82-.22,1.22-.34l.4-.13c.5-.17,1-.37,1.49-.59l.07,0,0,0a17.68,17.68,0,0,0,8.78-8.75l33.31-72.55A17.76,17.76,0,0,0,125.31,1.61Z"/><path class="cls-2" d="M164.94,82.92l-2.08-4.53a17.75,17.75,0,0,0-32.3,14.75l2.09,4.54a17.75,17.75,0,1,0,32.29-14.76Z"/><path class="cls-3" d="M125.1,1.61a18.38,18.38,0,0,0-3.63-1.2l-.34-.06c-.47-.09-.95-.17-1.43-.23l-.62,0q-.57,0-1.14-.06h-.24c-.39,0-.78,0-1.16,0h0c-.55,0-1.09.11-1.63.19l-.18,0c-.51.09-1,.19-1.52.33h-.06a17.73,17.73,0,0,0-11.58,9.77L84.38,47.76,67.21,10.38a1.51,1.51,0,0,0-.09-.18c-.15-.31-.31-.62-.48-.92s-.22-.43-.35-.64-.35-.55-.54-.83-.28-.43-.43-.63-.39-.48-.58-.72-.34-.43-.52-.63-.42-.42-.63-.63-.39-.4-.59-.59l-.67-.55c-.22-.19-.44-.38-.68-.55s-.44-.31-.67-.46l-.79-.52-.66-.36c-.3-.16-.6-.32-.9-.46l-.18-.1L58,1.42c-.34-.14-.69-.28-1-.4L56.16.77c-.31-.1-.63-.18-.94-.26s-.57-.13-.85-.18-.61-.11-.92-.15S52.88.1,52.6.08s-.65,0-1,0l-.55,0h-.32l-.48,0c-.38,0-.75.05-1.12.09l-.47.05a14.2,14.2,0,0,0-1.45.26l-.47.11c-.37.1-.74.2-1.1.32L45.2,1c-.5.17-1,.37-1.46.58l-.05,0-.15.08c-.43.2-.84.42-1.25.65l-.39.22c-.41.25-.82.51-1.21.8l-.12.08a14.12,14.12,0,0,0-1.2,1L39,4.73c-.29.26-.56.54-.83.82-.1.1-.2.2-.29.31a14.19,14.19,0,0,0-1,1.19s-.08.12-.13.17c-.26.36-.51.72-.74,1.1l-.26.43c-.18.31-.35.63-.52.95l-.23.46-.11.22L1.61,82.92A17.75,17.75,0,1,0,33.9,97.68L51.07,60.3,68.23,97.68l.1.18a9.59,9.59,0,0,0,.47.9c.11.22.23.45.35.66s.35.54.53.81.29.44.45.65.37.47.56.7.35.44.54.65.4.41.61.61.4.42.61.61.43.36.65.54.46.38.7.56.43.3.65.45.53.36.81.52.44.24.66.36a9.59,9.59,0,0,0,.9.47l.18.1c.18.08.36.14.54.21s.59.25.89.36l.84.26.81.23c.3.08.6.14.91.2l.78.14c.31.05.61.08.92.11s.54.05.81.06.26,0,.39,0h.5c.29,0,.57,0,.85,0s.62,0,.92-.07.51,0,.76-.09.69-.11,1-.18l.61-.14c.42-.1.82-.22,1.22-.34l.4-.13a15.91,15.91,0,0,0,1.49-.59l.08,0,0,0a17.68,17.68,0,0,0,8.78-8.75l33.31-72.55A17.75,17.75,0,0,0,125.1,1.61Z"/><path class="cls-4" d="M164.73,82.92l-2.08-4.53a17.75,17.75,0,0,0-32.29,14.75l2.08,4.54a17.75,17.75,0,1,0,32.29-14.76Z"/><path class="cls-5" d="M79,107.17q.42.15.84.27l.81.23c.3.08.6.14.91.2l.78.14.92.11.81.06.39,0H85l.85,0c.31,0,.62,0,.92-.07s.51,0,.76-.09.69-.11,1-.18l.61-.14c.42-.1.82-.22,1.22-.35l.4-.12c.5-.18,1-.37,1.49-.59,0,0,0,0,.08,0l0,0a17.68,17.68,0,0,0,8.78-8.75l33.31-72.55a17.75,17.75,0,0,0-8.77-23.52"/><path class="cls-6" d="M57.14,1c-.26-.1-.52-.17-.78-.25s-.62-.18-.93-.26L54.58.33C54.27.27,54,.22,53.66.18s-.57-.08-.85-.1-.65,0-1,0l-.54,0H51l-.48,0c-.38,0-.75.05-1.12.09a3.91,3.91,0,0,0-.48.05,14.71,14.71,0,0,0-1.45.26L47,.54c-.38.1-.74.2-1.11.32L45.4,1c-.49.17-1,.37-1.46.58l0,0-.15.08c-.43.2-.85.42-1.26.65l-.38.22a14.06,14.06,0,0,0-1.21.8l-.13.08c-.41.3-.81.63-1.2,1l-.34.32c-.29.26-.57.54-.84.82l-.29.31c-.34.38-.67.77-1,1.19a1.92,1.92,0,0,0-.13.17c-.26.36-.51.72-.74,1.1L36,8.75c-.18.31-.36.63-.52.95l-.23.46a1.51,1.51,0,0,0-.11.22L1.82,82.92a17.75,17.75,0,0,0,8.77,23.53"/><path class="cls-7" d="M51.29,60.71l15.8-36a3.67,3.67,0,0,1,6.7-.06L84.48,47.53,65.54,91.71"/></g></g></svg>