<svg xmlns="http://www.w3.org/2000/svg" xmlns:xlink="http://www.w3.org/1999/xlink" viewBox="0 0 166.13 108.18"><defs><style>.cls-1,.cls-5{fill-rule:evenodd;}.cls-1{fill:url(#linear-gradient);}.cls-2{fill:url(#linear-gradient-2);}.cls-3{fill:url(#linear-gradient-3);}.cls-4{fill:url(#linear-gradient-4);}.cls-5{opacity:0.07;isolation:isolate;}</style><linearGradient id="linear-gradient" x1="134.21" y1="-318.6" x2="160.51" y2="-292.28" gradientTransform="matrix(1, 0, 0, -1, 0, -217.36)" gradientUnits="userSpaceOnUse"><stop offset="0" stop-color="#006cff"/><stop offset="1" stop-color="#0cb4ce"/></linearGradient><linearGradient id="linear-gradient-2" x1="12.06" y1="-327.08" x2="123.43" y2="-215.72" xlink:href="#linear-gradient"/><linearGradient id="linear-gradient-3" x1="67.72" y1="-313.45" x2="144.51" y2="-236.66" xlink:href="#linear-gradient"/><linearGradient id="linear-gradient-4" x1="-8.68" y1="-306.34" x2="68.12" y2="-229.54" xlink:href="#linear-gradient"/></defs><g id="Layer_2" data-name="Layer 2"><g id="Layer_1-2" data-name="Layer 1"><path class="cls-1" d="M164.52,82.92l-2.08-4.53a17.75,17.75,0,0,0-32.29,14.75l2.08,4.54a17.75,17.75,0,0,0,32.29-14.76Z"/><path class="cls-2" d="M125.1,1.61a18.05,18.05,0,0,0-3.64-1.2l-.33-.06c-.48-.09-1-.17-1.43-.23h-.62L117.94,0h-1.4a11.15,11.15,0,0,0-1.63.19h-.18a13.28,13.28,0,0,0-1.52.33h-.06a17.7,17.7,0,0,0-11.58,9.77L84.38,47.76,67.21,10.38l-.09-.18c-.15-.31-.32-.62-.48-.92l-.35-.64c-.17-.28-.36-.55-.54-.83s-.28-.43-.43-.63-.39-.48-.59-.72-.33-.43-.51-.63-.43-.42-.63-.63-.39-.4-.6-.59-.44-.37-.66-.55-.45-.38-.68-.55L61,3.05l-.79-.52-.67-.36c-.29-.16-.59-.32-.89-.46l-.19-.1L58,1.42,57,1,56.15.77c-.31-.1-.62-.18-.93-.26L54.37.33c-.31-.06-.58-.11-.92-.15S52.88.1,52.6.08s-.65,0-1,0H50.31a10.35,10.35,0,0,0-1.12.09l-.48,0a14.71,14.71,0,0,0-1.45.26l-.47.06c-.38.1-.74.2-1.11.32L45.19,1c-.49.17-1,.37-1.46.58h0l-.15.08c-.43.2-.85.42-1.26.65l-.38.22c-.41.25-.82.51-1.21.8l-.13.08a12.23,12.23,0,0,0-1.2,1l-.34.32c-.29.26-.57.54-.84.82l-.29.31c-.34.38-.67.77-1,1.19l-.13.17c-.26.36-.51.72-.74,1.1l-.27.43c-.18.31-.36.63-.52.95l-.23.46a1.51,1.51,0,0,0-.11.22L1.61,82.92A17.75,17.75,0,0,0,33.9,97.68L51.06,60.3,68.23,97.68l.09.18c.15.31.31.61.47.9s.23.45.36.66.35.54.53.81.29.44.44.65.38.47.57.7.35.44.54.65.4.41.6.61.41.42.62.61.43.36.65.54.45.38.69.56.44.3.66.45.53.36.8.52.44.24.66.36.6.33.9.47l.19.1c.18.08.36.14.54.21s.59.25.89.36l.83.26.81.23c.31.08.61.14.92.2l.78.14c.3.05.61.08.92.11s.54.05.81.06.26,0,.39,0h1.35a4.21,4.21,0,0,0,.92-.07,7.24,7.24,0,0,0,.76-.09c.25-.09.69-.11,1-.18l.62-.14c.41-.1.82-.22,1.22-.34l.4-.13c.5-.17,1-.37,1.49-.59h.07a17.65,17.65,0,0,0,8.78-8.75l33.31-72.55a17.75,17.75,0,0,0-8.69-23.56Z"/><path class="cls-3" d="M78.79,107.17q.42.15.84.27l.81.23c.3.08.6.14.91.2l.78.14.92.11.81.06h1.78a4,4,0,0,0,.92-.07,7.57,7.57,0,0,0,.76-.09c.25-.09.69-.11,1-.18l.61-.14c.42-.1.82-.22,1.22-.35l.4-.12c.5-.18,1-.37,1.49-.59h.08a17.65,17.65,0,0,0,8.78-8.75l33.31-72.55a17.74,17.74,0,0,0-8.77-23.52"/><path class="cls-4" d="M56.93,1c-.26-.1-.52-.17-.78-.25L55.22.49,54.37.33c-.31-.06-.58-.11-.92-.15S52.88.1,52.6.08s-.65,0-1,0H50.31a10.35,10.35,0,0,0-1.12.09,3.91,3.91,0,0,0-.48,0,14.71,14.71,0,0,0-1.45.26l-.47.06c-.38.1-.74.2-1.11.32L45.19,1c-.49.17-1,.37-1.46.58h0l-.15.08c-.43.2-.85.42-1.26.65l-.38.22c-.41.25-.82.51-1.21.8l-.13.08a12.23,12.23,0,0,0-1.2,1l-.34.32c-.29.26-.57.54-.84.82l-.29.31c-.34.38-.67.77-1,1.19l-.13.17c-.26.36-.51.72-.74,1.1l-.27.43c-.18.31-.36.63-.52.95l-.23.46a1.51,1.51,0,0,0-.11.22L1.61,82.92a17.75,17.75,0,0,0,8.76,23.52h0"/><path class="cls-5" d="M51.08,60.71l15.8-36a3.67,3.67,0,0,1,6.7-.06L84.27,47.53,65.33,91.71"/></g></g></svg>